HIERARCHY
ROOT Hips
{
  OFFSET -218.66 87.5395 228.961
  CHANNELS 6 Xposition Yposition Zposition Zrotation Xrotation Yrotation
  JOINT ToSpine
  {
    OFFSET -2.69724 7.43032 -0.144315
    CHANNELS 3 Zrotation Xrotation Yrotation
    JOINT Spine
    {
      OFFSET -0.0310711 10.7595 1.96963
      CHANNELS 3 Zrotation Xrotation Yrotation
      JOINT Spine1
      {
        OFFSET 19.9056 3.91189 0.764692
        CHANNELS 3 Zrotation Xrotation Yrotation
        JOINT Neck
        {
          OFFSET 25.9749 7.03908 -0.130764
          CHANNELS 3 Zrotation Xrotation Yrotation
          JOINT Head
          {
            OFFSET 9.52751 0.295786 -0.907742
            CHANNELS 3 Zrotation Xrotation Yrotation
            End Site
            {
              OFFSET 16.4037 0.713936 2.7358
            }
          }
        }
        JOINT LeftShoulder
        {
          OFFSET 17.7449 4.33886 11.7777
          CHANNELS 3 Zrotation Xrotation Yrotation
          JOINT LeftArm
          {
            OFFSET 0.911315 1.27913 9.80584
            CHANNELS 3 Zrotation Xrotation Yrotation
            JOINT LeftForeArm
            {
              OFFSET 28.6126 1.18197 -3.53199
              CHANNELS 3 Zrotation Xrotation Yrotation
              JOINT LeftHand
              {
                OFFSET 27.5088 0.0218783 0.327423
                CHANNELS 3 Zrotation Xrotation Yrotation
                End Site
                {
                  OFFSET 18.6038 -0.000155887 0.382096
                }
              }
            }
          }
        }
        JOINT RightShoulder
        {
          OFFSET 17.1009 2.89543 -12.2328
          CHANNELS 3 Zrotation Xrotation Yrotation
          JOINT RightArm
          {
            OFFSET 1.4228 0.178766 -10.211
            CHANNELS 3 Zrotation Xrotation Yrotation
            JOINT RightForeArm
            {
              OFFSET 28.733 1.87905 2.64907
              CHANNELS 3 Zrotation Xrotation Yrotation
              JOINT RightHand
              {
                OFFSET 27.4588 0.290562 -0.101845
                CHANNELS 3 Zrotation Xrotation Yrotation
                End Site
                {
                  OFFSET 17.8396 -0.255518 -0.000602873
                }
              }
            }
          }
        }
      }
    }
  }
  JOINT LeftUpLeg
  {
    OFFSET -5.61296 -2.22332 -10.2353
    CHANNELS 3 Zrotation Xrotation Yrotation
    JOINT LeftLeg
    {
      OFFSET 2.56703 -44.7417 -7.93097
      CHANNELS 3 Zrotation Xrotation Yrotation
      JOINT LeftFoot
      {
        OFFSET 3.16933 -46.5642 -3.96578
        CHANNELS 3 Zrotation Xrotation Yrotation
        JOINT LeftToeBase
        {
          OFFSET 0.346054 -6.02161 12.8035
          CHANNELS 3 Zrotation Xrotation Yrotation
          End Site
          {
            OFFSET 0.134235 -1.35082 5.13018
          }
        }
      }
    }
  }
  JOINT RightUpLeg
  {
    OFFSET -5.7928 -1.72406 10.6446
    CHANNELS 3 Zrotation Xrotation Yrotation
    JOINT RightLeg
    {
      OFFSET -2.57161 -44.7178 -7.85259
      CHANNELS 3 Zrotation Xrotation Yrotation
      JOINT RightFoot
      {
        OFFSET -3.10148 -46.5936 -4.03391
        CHANNELS 3 Zrotation Xrotation Yrotation
        JOINT RightToeBase
        {
          OFFSET -0.0828122 -6.13587 12.8035
          CHANNELS 3 Zrotation Xrotation Yrotation
          End Site
          {
            OFFSET -0.131328 -1.35082 5.13018
          }
        }
      }
    }
  }
}
MOTION
Frames:	10
Frame Time:	0.0333333
205.509 108.27 -213.002 67.8598 49.1038 18.7299 -70.1915 0 88.8779 70.6442 70.9482 17.6305 8.6472 20.8702 2.01717 -147.346 18.1494 169.429 -148.775 54.6589 162.169 2.95724 1.443 -28.2507 -111.028 58.1077 -87.4112 -10.4514 55.2565 13.1604 6.23456 -0.11531 -0.453845 0.449766 -1.75615 30.1088 -84.2076 -54.544 93.7307 1.64065 -18.805 14.2074 6.68492 -0.144625 -3.10141 -61.4164 -1.02651 98.8767 1.41918 17.7401 -17.8985 5.78544 7.38241 -0.649648 -4.96224 -14.6757 12.2474 -60.9228 1.68234 79.6846 1.64971 20.86 8.85701 -5.63467 -5.49802 0.976289 1.87394 16.1743 -13.9888 
205.636 108.292 -213.101 67.6091 49.6574 19.0006 -70.1915 0 88.8779 69.8072 70.7872 18.2109 8.79803 20.7722 2.12055 -147.368 18.2583 169.238 -149.409 54.9566 162.541 2.98173 1.49076 -28.4105 -111.426 57.9807 -87.3351 -10.5085 55.9627 13.3998 5.34081 -0.09819 -0.451914 0.490271 -1.98327 30.3059 -83.4332 -54.7038 94.3152 2.22544 -18.0405 15.0506 6.71534 -0.15184 -3.22326 -61.6153 -1.04369 98.8803 1.34056 17.4787 -18.3661 5.57143 7.28703 -0.612623 -4.90776 -14.4763 12.0081 -61.054 1.53553 79.5283 1.73757 20.8454 8.26449 -6.09489 -5.93392 1.01849 1.48836 17.1823 -13.6173 
205.378 108.271 -213.044 68.4212 48.88 18.2471 -70.1915 0 88.8779 72.02 71.5122 16.6171 8.19152 21.387 1.72401 -147.131 18.2671 169.043 -149.224 54.9779 162.64 3.04223 1.60084 -28.8117 -109.929 57.7754 -88.5381 -10.6235 54.72 13.0008 5.89274 -0.106042 -0.403172 0.432584 -1.64307 30.2847 -82.293 -54.8096 95.0401 2.18945 -16.7383 15.4042 6.59354 -0.163333 -3.50212 -61.7416 -0.91958 99.1694 1.2861 17.6934 -17.6533 5.64356 7.22726 -0.627157 -4.88388 -14.4458 11.8272 -60.9436 1.55836 79.6081 1.68067 21.2316 9.11104 -6.11326 -5.64875 1.01455 1.6825 16.4985 -13.7305 
205.592 108.282 -213.109 67.6072 49.1817 19.0875 -70.1915 0 88.8779 69.417 71.2737 19.2017 8.51406 21.4099 1.77966 -147.117 18.5043 168.492 -149.328 55.2588 162.181 3.01418 1.70473 -28.3857 -108.858 58.3517 -89.5948 -10.8525 54.4364 12.9138 6.01883 -0.0957883 -0.176038 0.480028 -1.91003 30.4807 -81.4755 -54.9376 95.6964 2.11693 -15.7644 15.6301 7.4594 -0.165167 -3.13413 -61.3739 -0.711679 99.1516 1.24708 17.701 -18.2481 5.76099 7.35381 -0.645786 -4.93203 -14.6947 11.9332 -60.7665 1.7729 79.6913 1.77062 20.9546 8.46973 -6.26007 -5.16175 1.01696 1.92049 15.5357 -13.8195 
205.685 108.269 -213.237 67.4329 49.1867 18.9792 -70.1915 0 88.8779 68.2754 71.2174 20.1572 8.3696 21.5186 1.73793 -146.604 18.5869 168.248 -148.77 55.29 162.05 3.00258 1.84188 -28.0697 -107.63 58.6149 -90.3058 -11.1361 53.8463 12.7369 5.14856 -0.0764217 -0.0734732 0.448276 -1.71076 30.6948 -81.758 -55.1902 95.0161 2.70739 -15.6632 16.226 6.941 -0.14098 -2.92407 -61.6042 -1.02926 99.0232 1.18171 17.1999 -18.0592 5.76131 7.39032 -0.645049 -4.90858 -14.5017 11.9809 -60.5407 1.32175 79.4287 1.86193 21.3825 8.54734 -6.29359 -5.89351 1.03179 1.52557 16.5042 -13.4127 
205.428 108.251 -213.182 67.5493 48.5338 18.7623 -70.1915 0 88.8779 68.6657 71.5636 20.2561 8.09809 21.8883 1.52807 -146.704 18.8838 168.697 -148.91 55.6407 162.454 3.0337 1.96138 -28.1789 -107.13 58.8423 -90.94 -11.2427 53.7479 12.7078 6.03484 -0.183605 -1.74985 0.420801 -1.55906 30.5495 -80.9623 -55.2954 95.7532 2.30691 -14.3845 16.2061 7.24907 -0.141224 -2.80881 -61.1899 -1.21348 98.8448 1.39052 17.5795 -17.3611 5.67786 7.53382 -0.626509 -4.98757 -14.908 12.1659 -60.0348 1.30609 79.5643 1.79409 21.7822 9.26825 -6.34722 -5.40311 1.0276 1.87233 15.526 -13.7157 
205.632 108.258 -213.262 67.4486 48.7686 18.7476 -70.1915 0 88.8779 66.9229 71.3766 21.6682 8.51206 21.8348 1.79431 -146.644 19.1547 169.244 -149.279 56.0548 163.334 3.04087 1.8762 -28.3728 -105.498 58.8793 -92.3408 -11.3927 52.5704 12.3746 6.15659 -0.127245 -0.690591 0.397905 -1.43979 30.2378 -80.3126 -55.7239 96.1331 2.94612 -14.9591 16.7271 7.34552 -0.130028 -2.58298 -61.3966 -1.32471 98.7497 1.36953 17.3972 -17.5352 5.55629 7.40291 -0.607131 -4.95292 -14.6361 12.2136 -60.1046 1.25948 79.5739 1.66262 21.9258 9.08563 -6.12964 -5.81379 1.01875 1.79868 16.1321 -13.8169 
205.779 108.259 -213.291 67.7257 49.0505 18.8031 -70.1915 0 88.8779 67.5906 71.3113 21.1023 8.47841 21.7074 1.73251 -146.263 19.0964 169.138 -148.609 55.8587 162.934 3.05407 1.89039 -28.4733 -104.01 58.749 -93.6418 -11.8884 52.6714 12.3994 6.81104 -0.211009 -1.81062 0.390932 -1.38705 30.4918 -79.1709 -55.3069 97.1503 2.4489 -14.4818 16.4449 7.95579 -0.110726 -2.09627 -61.5246 -1.01591 98.8954 1.4382 17.7697 -17.9932 5.44485 7.08684 -0.594406 -4.92384 -14.4601 12.1806 -60.6784 1.70827 79.7571 1.53969 21.4095 8.505 -6.38991 -5.70391 1.03559 1.70973 15.9804 -13.5709 
205.732 108.227 -213.298 67.8568 48.9956 18.4652 -70.1915 0 88.8779 67.1824 71.3944 21.4029 8.63763 21.854 1.6379 -146.225 19.0497 169.113 -148.264 55.7068 162.572 3.03141 1.81318 -28.3808 -103.516 59.1575 -94.5478 -12.057 53.074 12.5185 6.89649 -0.220912 -1.92543 0.389685 -1.38457 30.3816 -80.5966 -55.5936 96.1845 2.82012 -16.0556 16.3163 7.90574 -0.115429 -2.18214 -61.6952 -1.31402 98.7746 1.41712 17.5739 -17.7085 5.63011 7.49145 -0.618658 -5.01309 -15.0114 12.268 -60.4625 1.41109 79.6646 1.47441 21.955 8.80784 -6.40647 -5.85052 1.0391 1.78819 15.6454 -13.5918 
205.775 108.212 -213.228 68.5811 49.1285 18.1205 -70.1915 0 88.8779 69.1006 71.68 19.6276 8.52875 21.8789 1.61604 -146.381 19.1237 169.26 -148.354 55.7342 162.204 2.9853 1.52491 -28.3912 -101.633 59.2444 -96.411 -12.2437 51.9031 12.1874 7.46581 -0.206918 -1.45321 0.428916 -1.61724 30.357 -79.5741 -55.2652 97.1083 2.8507 -16.3685 16.3328 7.4506 -0.114848 -2.29419 -61.8543 -0.898019 99.1872 1.37085 18.1689 -17.9138 6.28418 7.45169 -0.739921 -5.00464 -15.2206 11.8802 -61.0502 1.77697 79.799 1.41965 21.7122 8.48073 -6.64328 -5.77363 1.05488 1.70195 15.6346 -13.4091 
